<?xml version="1.0" encoding="UTF-8"?>
<svg version="1.1" xmlns="http://www.w3.org/2000/svg" width="259" height="145">
<path d="M0 0 C-2.57994466 4.61135139 -5.2901823 9.03662543 -8.2578125 13.4140625 C-9.05611106 14.59887649 -9.8542845 15.7837748 -10.65234375 16.96875 C-11.89259923 18.80426903 -13.13433458 20.63875278 -14.37841797 22.47167969 C-15.59231827 24.26224225 -16.80038039 26.05663424 -18.0078125 27.8515625 C-18.72598145 28.91197754 -19.44415039 29.97239258 -20.18408203 31.06494141 C-21.79918577 33.67542503 -22.97684468 36.115594 -24 39 C-23.18015625 38.72285156 -22.3603125 38.44570312 -21.515625 38.16015625 C-19.89914063 37.61681641 -19.89914063 37.61681641 -18.25 37.0625 C-16.64898437 36.52302734 -16.64898437 36.52302734 -15.015625 35.97265625 C-12.68264275 35.22017881 -10.38625005 34.55022756 -8 34 C-7.87625 32.741875 -7.7525 31.48375 -7.625 30.1875 C-7.30131941 26.89674737 -6.93395001 25.90092502 -5 23 C-1.98828125 21.90234375 -1.98828125 21.90234375 1.6875 20.9375 C2.88761719 20.61652344 4.08773437 20.29554687 5.32421875 19.96484375 C7.14373047 19.48724609 7.14373047 19.48724609 9 19 C10.16789062 18.63777344 11.33578125 18.27554688 12.5390625 17.90234375 C16.0388358 16.98987464 19.07750338 16.66772185 22.6875 16.625 C23.78449219 16.59664062 24.88148437 16.56828125 26.01171875 16.5390625 C29.66712796 17.1029034 30.80910767 18.06837741 33 21 C34.1994509 28.46325005 31.11805453 34.31845457 28 41 C29.32 41.66 30.64 42.32 32 43 C26.98955076 47.35749176 22.87691329 50.18962077 16 50 C13.51421637 49.7751347 11.04297735 49.48973152 8.56640625 49.1796875 C5.9351857 48.99546201 3.66599639 49.23715743 1.0625 49.625 C-4.69173226 50.36600606 -9.57369171 48.82596306 -15 47 C-15.495 44.525 -15.495 44.525 -16 42 C-16.78503906 42.51691406 -17.57007812 43.03382812 -18.37890625 43.56640625 C-28.03206325 49.61887647 -28.03206325 49.61887647 -32.1875 49.0625 C-35 48 -35 48 -36 46 C-35.109375 43.86328125 -35.109375 43.86328125 -33.75 41.3125 C-31.23285698 36.46543947 -28.9952628 31.59090681 -27.03515625 26.48828125 C-26.69355469 25.60527344 -26.35195312 24.72226562 -26 23.8125 C-25.690625 22.99394531 -25.38125 22.17539062 -25.0625 21.33203125 C-24 19 -24 19 -22.37109375 16.8515625 C-20.74831606 15.05727634 -20.74831606 15.05727634 -21.0625 12.5625 C-20.9720548 8.85424693 -19.59384112 7.59384112 -17 5 C-11.30074632 1.0462254 -6.84513361 -0.15557122 0 0 Z M1.80859375 29.5390625 C-1.18936203 31.96073737 -4.50435866 33.40549693 -8 35 C-4.39948995 36.1114618 -2.30147908 35.57038658 1.3046875 34.53515625 C5.6682475 33.66876825 10.09874545 33.60921609 14.54003906 33.51806641 C16.82087599 33.46367563 16.82087599 33.46367563 20 33 C22.44897847 29.32653229 22.31537716 27.33643601 22 23 C20.20992818 20.82761995 20.20992818 20.82761995 17.875 20.625 C11.29950375 21.48267342 6.58629062 25.19168937 1.80859375 29.5390625 Z " fill="#FD0309" transform="translate(101,37)"/>
<path d="M0 0 C-0.51331405 4.58151945 -0.51331405 4.58151945 -2.64453125 6.4140625 C-3.35996094 6.81367187 -4.07539062 7.21328125 -4.8125 7.625 C-14.05630713 13.39313565 -23.91026815 21.10964886 -27 32 C-26.9297655 35.93313198 -26.76632959 37.23367041 -24 40 C-17.91211384 40.70949049 -14.06751347 38.98988676 -8.875 36.1875 C-8.18535156 35.83107422 -7.49570312 35.47464844 -6.78515625 35.10742188 C-3.11231603 33.19375274 0.47375778 31.17474471 4 29 C3.36191406 28.46890625 2.72382812 27.9378125 2.06640625 27.390625 C1.24011719 26.68421875 0.41382813 25.9778125 -0.4375 25.25 C-1.26121094 24.55390625 -2.08492187 23.8578125 -2.93359375 23.140625 C-5.01296451 20.98656985 -5.63867326 19.91689219 -6 17 C-4.73160474 16.49384702 -3.46016898 15.99530901 -2.1875 15.5 C-1.47980469 15.2215625 -0.77210937 14.943125 -0.04296875 14.65625 C2 14 2 14 5 14 C5 14.66 5 15.32 5 16 C9.34184202 15.81535634 9.34184202 15.81535634 13 14 C18.52479577 13.7142347 22.76465209 14.25488403 28 16 C26.91081033 22.86476118 25.09761199 28.77470211 22 35 C21.34 35 20.68 35 20 35 C20 36.32 20 37.64 20 39 C18.63671875 40.48828125 18.63671875 40.48828125 17 42 C15.80400932 44.03232242 15.80400932 44.03232242 14.8125 46.1875 C14.46832031 46.90292969 14.12414063 47.61835937 13.76953125 48.35546875 C13.38861328 49.16951172 13.38861328 49.16951172 13 50 C12.34 50 11.68 50 11 50 C11 48.35 11 46.7 11 45 C10.34 45 9.68 45 9 45 C9.66 41.37 10.32 37.74 11 34 C9.97261719 34.62648437 8.94523437 35.25296875 7.88671875 35.8984375 C0.10164331 40.53874227 -6.75619382 44.55747736 -16 45 C-16.65097656 45.03416016 -17.30195313 45.06832031 -17.97265625 45.10351562 C-20.14874108 45.20422373 -22.32207753 45.26749155 -24.5 45.3125 C-25.19544922 45.33062744 -25.89089844 45.34875488 -26.60742188 45.36743164 C-29.48826935 45.36141217 -31.50023044 45.34371906 -33.9140625 43.68359375 C-35.76247795 40.81788491 -35.88749506 38.37514814 -36 35 C-35.22923539 32.47169569 -34.20963711 30.37088873 -33 28 C-34.32 28 -35.64 28 -37 28 C-35.44955824 19.32901091 -25.48885977 12.23170363 -19 7 C-5.97986577 -1.99328859 -5.97986577 -1.99328859 0 0 Z " fill="#FD0208" transform="translate(38,40)"/>
<path d="M0 0 C-0.46342538 2.70331473 -1.030563 5.07550858 -2.0625 7.625 C-3.18358327 10.0395214 -3.18358327 10.0395214 -3 13 C-2.07058594 12.38511719 -1.14117187 11.77023438 -0.18359375 11.13671875 C1.06491583 10.32002451 2.31362444 9.50363448 3.5625 8.6875 C4.47612305 8.08131836 4.47612305 8.08131836 5.40820312 7.46289062 C10.89369052 3.89297026 16.27251007 0.82519153 22.9375 0.3125 C24.09572266 0.21388672 24.09572266 0.21388672 25.27734375 0.11328125 C26.13005859 0.05720703 26.13005859 0.05720703 27 0 C26.59882243 7.16976325 23.48416439 13.0284744 20.4375 19.4375 C19.91736328 20.55060547 19.39722656 21.66371094 18.86132812 22.81054688 C17.58242454 25.54434995 16.29514535 28.27386379 15 31 C14.01 30.67 13.02 30.34 12 30 C12 28.68 12 27.36 12 26 C11.34 26 10.68 26 10 26 C8.27730679 22.6622819 7.88394907 20.00026096 7.9375 16.30859375 C7.94652344 15.50091553 7.95554688 14.6932373 7.96484375 13.86108398 C7.97644531 13.24692627 7.98804688 12.63276855 8 12 C5.43203752 13.55405485 2.87084855 15.11775611 0.3125 16.6875 C-0.7693457 17.34008789 -0.7693457 17.34008789 -1.87304688 18.00585938 C-6.11884103 20.62312975 -9.59643733 23.29854637 -13 27 C-15.80755754 29.71397229 -16.71795638 29.98589782 -20.75 30.1875 C-21.8225 30.125625 -22.895 30.06375 -24 30 C-24.66 28.68 -25.32 27.36 -26 26 C-19.25 22 -19.25 22 -17 22 C-17.165 21.01 -17.33 20.02 -17.5 19 C-18.92178666 8.69204674 -18.92178666 8.69204674 -16.859375 4.90625 C-14.44728055 2.43334645 -12.27936646 1.72837735 -9 0.6875 C-7.948125 0.34074219 -6.89625 -0.00601563 -5.8125 -0.36328125 C-3 -1 -3 -1 0 0 Z " fill="#FD0208" transform="translate(162,55)"/>
<path d="M0 0 C-0.35189448 2.7487536 -0.79895285 3.81645227 -2.87646484 5.71313477 C-9.22449569 10.01258032 -15.72480981 13.60621055 -22.625 16.9375 C-26.04875 18.608125 -29.4725 20.27875 -33 22 C-23.1 22.66 -13.2 23.32 -3 24 C-3 24.99 -3 25.98 -3 27 C-19.13142885 29.86104587 -35.6121023 31.50338252 -52 31 C-50.58584797 27.4713985 -49.17228973 26.20783053 -45.81640625 24.484375 C-44.97585693 24.04158203 -44.13530762 23.59878906 -43.26928711 23.14257812 C-42.37604736 22.68302734 -41.48280762 22.22347656 -40.5625 21.75 C-31.72860486 17.05873964 -22.98162113 12.31620361 -16 5 C-17.74991334 4.97284617 -19.49994945 4.95353449 -21.25 4.9375 C-22.22453125 4.92589844 -23.1990625 4.91429687 -24.203125 4.90234375 C-26.71207531 4.98994676 -28.66497964 5.09876407 -31 6 C-33.26325246 8.97763043 -33.26325246 8.97763043 -35 12 C-37.375 11.6875 -37.375 11.6875 -40 11 C-42 8 -42 8 -41.859375 5.953125 C-40.41830764 2.6779719 -37.98111768 2.04872376 -34.79296875 0.74609375 C-30.57024257 -0.3819352 -26.5584199 -0.22120091 -22.21484375 -0.07421875 C-19.28221893 -0.00651538 -16.53516337 -0.16778957 -13.625 -0.5 C-3.34416446 -1.67208223 -3.34416446 -1.67208223 0 0 Z " fill="#FD0208" transform="translate(236,55)"/>
<path d="M0 0 C0.91587891 -0.01224609 1.83175781 -0.02449219 2.77539062 -0.03710938 C3.66033203 -0.03904297 4.54527344 -0.04097656 5.45703125 -0.04296875 C6.26760986 -0.04707764 7.07818848 -0.05118652 7.91333008 -0.05541992 C10.40461392 0.21069145 12.03251038 0.94130417 14.1875 2.1875 C11.94974766 5.5441285 11.25429952 5.76746014 7.5625 6.875 C6.74523437 7.12636719 5.92796875 7.37773438 5.0859375 7.63671875 C4.14621094 7.90935547 4.14621094 7.90935547 3.1875 8.1875 C3.1875 8.5175 3.1875 8.8475 3.1875 9.1875 C-3.21391012 9.69961281 -6.79260898 9.30638494 -11.8125 5.1875 C-10.27313979 -1.62966664 -6.27479722 0.00436053 0 0 Z " fill="#FEF1F2" transform="translate(104.8125,74.8125)"/>
<path d="M0 0 C2.475 0.99 2.475 0.99 5 2 C4.67 3.98 4.34 5.96 4 8 C2.35 8 0.7 8 -1 8 C-1.66 6.35 -2.32 4.7 -3 3 C-2.01 2.01 -1.02 1.02 0 0 Z M-1 3 C0 6 0 6 0 6 Z " fill="#000000" transform="translate(145,39)"/>
<path d="M0 0 C0.66 0.33 1.32 0.66 2 1 C1.69381595 4.67420866 1.24228216 5.78135513 -1.5625 8.3125 C-2.366875 8.869375 -3.17125 9.42625 -4 10 C-4.8125 7.8125 -4.8125 7.8125 -5 5 C-2.5625 2.1875 -2.5625 2.1875 0 0 Z " fill="#FD0B10" transform="translate(12,53)"/>
<path d="M0 0 C0.38133299 1.9914056 0.71325582 3.99279077 1 6 C0 7 0 7 -2.5625 7.0625 C-3.7690625 7.0315625 -3.7690625 7.0315625 -5 7 C-5.33 5.35 -5.66 3.7 -6 2 C-2.25 0 -2.25 0 0 0 Z M-3 3 C-3.33 3.66 -3.66 4.32 -4 5 C-3.01 4.67 -2.02 4.34 -1 4 C-1.66 3.67 -2.32 3.34 -3 3 Z " fill="#000000" transform="translate(247,42)"/>
<path d="M0 0 C0.66 0 1.32 0 2 0 C2 1.32 2 2.64 2 4 C2.99 3.67 3.98 3.34 5 3 C4.25 4.9375 4.25 4.9375 3 7 C1 7.875 1 7.875 -1 8 C-1.66 7.34 -2.32 6.68 -3 6 C-2.63318342 3.06546739 -2.13562754 2.13562754 0 0 Z " fill="#000000" transform="translate(236,30)"/>
<path d="M0 0 C1.65 1.32 3.3 2.64 5 4 C4.67 4.99 4.34 5.98 4 7 C1.9375 7.6875 1.9375 7.6875 0 8 C-3 4.25 -3 4.25 -3 2 C-2.01 1.34 -1.02 0.68 0 0 Z " fill="#000000" transform="translate(159,23)"/>
<path d="M0 0 C1.2065625 0.0309375 1.2065625 0.0309375 2.4375 0.0625 C2.4375 2.0425 2.4375 4.0225 2.4375 6.0625 C1.4475 6.3925 0.4575 6.7225 -0.5625 7.0625 C-1.2225 6.7325 -1.8825 6.4025 -2.5625 6.0625 C-3.25 3.5625 -3.25 3.5625 -3.5625 1.0625 C-2.5625 0.0625 -2.5625 0.0625 0 0 Z " fill="#000000" transform="translate(197.5625,125.9375)"/>
<path d="M0 0 C0.66 0 1.32 0 2 0 C3.4606285 2.64738916 4 3.89448334 4 7 C2.35 7 0.7 7 -1 7 C-1 6.01 -1 5.02 -1 4 C-1.66 4 -2.32 4 -3 4 C-3 3.34 -3 2.68 -3 2 C-2.01 2 -1.02 2 0 2 C0 1.34 0 0.68 0 0 Z " fill="#000000" transform="translate(223,117)"/>
<path d="M0 0 C1.67542976 0.28604898 3.34385343 0.61781233 5 1 C5.33 1.99 5.66 2.98 6 4 C4.75 5.5625 4.75 5.5625 3 7 C0.8125 6.6875 0.8125 6.6875 -1 6 C-1.042721 4.33388095 -1.04063832 2.66617115 -1 1 C-0.67 0.67 -0.34 0.34 0 0 Z M1 2 C1 2.99 1 3.98 1 5 C1.99 4.67 2.98 4.34 4 4 C3.67 3.34 3.34 2.68 3 2 C2.34 2 1.68 2 1 2 Z " fill="#000000" transform="translate(249,68)"/>
<path d="M0 0 C0.33 2.31 0.66 4.62 1 7 C-0.65 7.33 -2.3 7.66 -4 8 C-4.33 5.69 -4.66 3.38 -5 1 C-2 0 -2 0 0 0 Z " fill="#000000" transform="translate(183,13)"/>
<path d="M0 0 C1.65 0.33 3.3 0.66 5 1 C4.34 2.98 3.68 4.96 3 7 C1.35 6.67 -0.3 6.34 -2 6 C-1.34 4.02 -0.68 2.04 0 0 Z " fill="#000000" transform="translate(166,119)"/>
<path d="M0 0 C0.66 0 1.32 0 2 0 C2 0.99 2 1.98 2 3 C2.99 3 3.98 3 5 3 C5 3.66 5 4.32 5 5 C2.35261084 6.4606285 1.10551666 7 -2 7 C-1.125 1.125 -1.125 1.125 0 0 Z " fill="#000000" transform="translate(154,109)"/>
<path d="M0 0 C4.75 0.875 4.75 0.875 7 2 C6.67 3.32 6.34 4.64 6 6 C4.68 6.33 3.36 6.66 2 7 C1.34 4.69 0.68 2.38 0 0 Z M3 3 C4 5 4 5 4 5 Z " fill="#000000" transform="translate(241,97)"/>
<path d="M0 0 C1.125 3.75 1.125 3.75 0 6 C-1.65 6 -3.3 6 -5 6 C-5.33 4.35 -5.66 2.7 -6 1 C-4 0 -4 0 0 0 Z M-4 2 C-4 2.66 -4 3.32 -4 4 C-3.01 4 -2.02 4 -1 4 C-1 3.34 -1 2.68 -1 2 C-1.99 2 -2.98 2 -4 2 Z " fill="#000000" transform="translate(253,59)"/>
<path d="M0 0 C0.598125 0.226875 1.19625 0.45375 1.8125 0.6875 C1.8125 1.6775 1.8125 2.6675 1.8125 3.6875 C0.4925 3.3575 -0.8275 3.0275 -2.1875 2.6875 C-1.5275 4.0075 -0.8675 5.3275 -0.1875 6.6875 C-1.5075 6.6875 -2.8275 6.6875 -4.1875 6.6875 C-4.875 4.875 -4.875 4.875 -5.1875 2.6875 C-3.58493056 0.24147296 -2.95482043 -0.4221172 0 0 Z " fill="#000000" transform="translate(232.1875,25.3125)"/>
<path d="M0 0 C1.32 0.66 2.64 1.32 4 2 C4 2.99 4 3.98 4 5 C3.01 5 2.02 5 1 5 C1.33 5.99 1.66 6.98 2 8 C0.68 7.67 -0.64 7.34 -2 7 C-2 6.01 -2 5.02 -2 4 C-1.01 4 -0.02 4 1 4 C0.67 2.68 0.34 1.36 0 0 Z " fill="#000000" transform="translate(160,114)"/>
<path d="M0 0 C0.66 0 1.32 0 2 0 C2.33 2.31 2.66 4.62 3 7 C-1.75 6.125 -1.75 6.125 -4 5 C-4 4.34 -4 3.68 -4 3 C-2.68 3 -1.36 3 0 3 C0 2.01 0 1.02 0 0 Z " fill="#000000" transform="translate(230,112)"/>
<path d="M0 0 C2.62187494 1.04874998 3.79371361 1.64931313 5.25 4.125 C5.4975 4.74375 5.745 5.3625 6 6 C3.36 6 0.72 6 -2 6 C-2 5.34 -2 4.68 -2 4 C-1.01 4 -0.02 4 1 4 C0.67 2.68 0.34 1.36 0 0 Z " fill="#000000" transform="translate(245,89)"/>
<path d="M0 0 C0.66 0 1.32 0 2 0 C2 0.66 2 1.32 2 2 C2.99 2.66 3.98 3.32 5 4 C4.67 4.99 4.34 5.98 4 7 C1.9375 7.6875 1.9375 7.6875 0 8 C-0.66 6.02 -1.32 4.04 -2 2 C-1.34 1.34 -0.68 0.68 0 0 Z " fill="#000000" transform="translate(165,19)"/>
<path d="M0 0 C1.66611905 -0.042721 3.33382885 -0.04063832 5 0 C6 1 6 1 6.0625 3.5625 C6.041875 4.366875 6.02125 5.17125 6 6 C5.34 6 4.68 6 4 6 C4 4.68 4 3.36 4 2 C3.54625 2.495 3.0925 2.99 2.625 3.5 C1 5 1 5 -1 5 C-0.67 3.35 -0.34 1.7 0 0 Z " fill="#000000" transform="translate(247,82)"/>
<path d="M0 0 C0.66 0.33 1.32 0.66 2 1 C2.40729228 3.32156597 2.74438677 5.6568787 3 8 C2.34 8 1.68 8 1 8 C0.34 7.34 -0.32 6.68 -1 6 C-1.99 5.67 -2.98 5.34 -4 5 C-2.68 3.35 -1.36 1.7 0 0 Z " fill="#000000" transform="translate(210,14)"/>
<path d="M0 0 C2.31 0.33 4.62 0.66 7 1 C7 1.99 7 2.98 7 4 C4.5 5.6875 4.5 5.6875 2 7 C1.67 6.34 1.34 5.68 1 5 C1.33 4.01 1.66 3.02 2 2 C1.34 2 0.68 2 0 2 C0 1.34 0 0.68 0 0 Z " fill="#000000" transform="translate(244,51)"/>
<path d="M0 0 C1.65 0 3.3 0 5 0 C5 0.66 5 1.32 5 2 C4.01 2.66 3.02 3.32 2 4 C2.99 4.66 3.98 5.32 5 6 C4.01 6.33 3.02 6.66 2 7 C1.01 6.34 0.02 5.68 -1 5 C-0.67 3.35 -0.34 1.7 0 0 Z " fill="#000000" transform="translate(200,13)"/>
<path d="M0 0 C1.65 0 3.3 0 5 0 C4.67 2.31 4.34 4.62 4 7 C2.68 6.67 1.36 6.34 0 6 C0 4.02 0 2.04 0 0 Z " fill="#000000" transform="translate(187,126)"/>
<path d="M0 0 C2.4375 0.75 2.4375 0.75 5 2 C5.8125 4.125 5.8125 4.125 6 6 C5.236875 5.690625 4.47375 5.38125 3.6875 5.0625 C1.81210323 4.32106407 -0.08684652 3.63771783 -2 3 C-1.34 2.01 -0.68 1.02 0 0 Z " fill="#000000" transform="translate(234,107)"/>
<path d="M0 0 C0.66 0.66 1.32 1.32 2 2 C1.34 2 0.68 2 0 2 C0.33 3.98 0.66 5.96 1 8 C-0.7074998 6.71937515 -2.37373596 5.38232443 -4 4 C-4 3.34 -4 2.68 -4 2 C-2.68 1.34 -1.36 0.68 0 0 Z " fill="#000000" transform="translate(174,15)"/>
<path d="M0 0 C0 0.66 0 1.32 0 2 C-0.66 2 -1.32 2 -2 2 C-2 3.65 -2 5.3 -2 7 C-2.66 7 -3.32 7 -4 7 C-4 5.35 -4 3.7 -4 2 C-4.66 1.67 -5.32 1.34 -6 1 C-4 0 -4 0 0 0 Z " fill="#000000" transform="translate(192,12)"/>
<path d="M0 0 C2.475 0.495 2.475 0.495 5 1 C4.34 2.98 3.68 4.96 3 7 C2.34 7 1.68 7 1 7 C1.33 5.35 1.66 3.7 2 2 C1.34 2 0.68 2 0 2 C0 1.34 0 0.68 0 0 Z " fill="#000000" transform="translate(173,122)"/>
<path d="M0 0 C1.32 0.33 2.64 0.66 4 1 C4 2.65 4 4.3 4 6 C3.01 6 2.02 6 1 6 C1.33 4.68 1.66 3.36 2 2 C1.34 2 0.68 2 0 2 C0 1.34 0 0.68 0 0 Z " fill="#000000" transform="translate(180,124)"/>
<path d="M0 0 C0.33 0.66 0.66 1.32 1 2 C-0.65 3.98 -2.3 5.96 -4 8 C-4.33 7.01 -4.66 6.02 -5 5 C-3.35 3.35 -1.7 1.7 0 0 Z " fill="#FEE5E6" transform="translate(13,55)"/>
<path d="M0 0 C0.33 0.99 0.66 1.98 1 3 C-2 5 -2 5 -5 5 C-5 4.34 -5 3.68 -5 3 C-2.5 1.375 -2.5 1.375 0 0 Z " fill="#000000" transform="translate(243,37)"/>
<path d="M0 0 C2.5 1.375 2.5 1.375 5 3 C5 3.66 5 4.32 5 5 C2.525 4.01 2.525 4.01 0 3 C0 2.01 0 1.02 0 0 Z " fill="#000000" transform="translate(238,103)"/>
<path d="M0 0 C0.33 0 0.66 0 1 0 C1 2.31 1 4.62 1 7 C0.34 7 -0.32 7 -1 7 C-0.67 4.69 -0.34 2.38 0 0 Z " fill="#000000" transform="translate(195,12)"/>
<path d="M0 0 C0.99 0 1.98 0 3 0 C3 0.99 3 1.98 3 3 C2.01 3 1.02 3 0 3 C0 2.01 0 1.02 0 0 Z " fill="#000000" transform="translate(210,125)"/>
<path d="M0 0 C0.99 0.33 1.98 0.66 3 1 C2.67 1.66 2.34 2.32 2 3 C1.01 3 0.02 3 -1 3 C-0.67 2.01 -0.34 1.02 0 0 Z " fill="#000000" transform="translate(220,21)"/>
</svg>
